<svg width="150" height="71" version="1.1" xmlns="http://www.w3.org/2000/svg" xmlns:xlink="http://www.w3.org/1999/xlink"><defs><path id="path-1" d="M0 0h150v70.573H0z"/></defs><g id="Symbols" stroke="none" stroke-width="1" fill="none" fill-rule="evenodd"><g id="navbar" transform="translate(-280 -73)"><g transform="translate(280 73)" id="logo-color"><mask id="mask-2" fill="#fff"><use xlink:href="#path-1"/></mask><path d="M53.705 70.197h25.682V44.48H53.705v25.718zm12.84-28.81c-7.57 0-13.706-6.137-13.706-13.707 0-7.57 6.137-13.706 13.707-13.706 7.57 0 13.707 6.137 13.707 13.706 0 7.57-6.137 13.707-13.707 13.707z" id="Fill-1" fill="#D22530" mask="url(#mask-2)"/><path d="M83.79 14.81v25.778h5.367V23.425l10.912 17.163h5.437V14.809h-5.331V31.3L89.687 14.81H83.79zm25.883 0v25.778h17.586V35.36h-12.007v-5.12h12.007v-5.227h-12.007V20h12.007v-5.19h-17.586zm21.505 0v25.778h17.162V35.22h-11.548V14.81h-5.614zM94.03 70.572c1.554 0 2.966-.247 4.237-.706a8.785 8.785 0 003.25-2.048c.883-.883 1.589-1.978 2.083-3.285.495-1.27.741-2.718.741-4.343V44.442h-5.685v15.784c0 1.519-.424 2.72-1.271 3.602-.883.883-2.013 1.342-3.39 1.342-1.377 0-2.507-.459-3.32-1.342-.847-.882-1.27-2.083-1.27-3.602V44.442h-5.686v15.75c0 1.624.247 3.071.742 4.342.494 1.307 1.2 2.402 2.084 3.285a8.782 8.782 0 003.248 2.048c1.236.459 2.648.706 4.237.706zm14.407-26.13V70.22H125.6v-5.368h-11.548v-20.41h-5.615zm30.404 17.267l4.838 8.51H150l-7.945-13.171 7.627-12.607h-6.109l-4.661 7.98-4.661-7.98h-6.039l7.451 12.5-7.944 13.278h6.214l4.908-8.51zm-116.1-46.9v25.778h17.162V35.22H28.356V14.81H22.74zm20.834 25.778h5.65V14.809h-5.65v25.779zM13.489 70.573c1.907 0 3.637-.353 5.19-1.06a11.94 11.94 0 003.991-2.79c1.095-1.164 1.907-2.506 2.507-4.06.6-1.554.883-3.178.883-4.873v-2.542h-13.7v5.19h7.697c-.46 1.483-1.236 2.649-2.366 3.496-1.13.883-2.542 1.307-4.273 1.307a8.36 8.36 0 01-3.178-.6c-.953-.389-1.8-.918-2.471-1.66-.707-.706-1.236-1.554-1.625-2.507-.389-.954-.565-1.978-.565-3.143 0-1.13.212-2.19.6-3.143a8.118 8.118 0 011.66-2.542 7.541 7.541 0 012.437-1.696 7.905 7.905 0 013.036-.6c1.413 0 2.649.283 3.709.848a7.515 7.515 0 012.613 2.437l4.696-3.285a14.104 14.104 0 00-4.555-3.849c-1.836-.953-3.99-1.412-6.463-1.412-1.942 0-3.743.353-5.367 1.024a12.864 12.864 0 00-4.202 2.79C2.578 49.067 1.66 50.48.989 52.104.317 53.729 0 55.459 0 57.33c0 1.801.317 3.496.953 5.085a12.868 12.868 0 002.719 4.202c1.166 1.236 2.613 2.19 4.273 2.896 1.66.706 3.496 1.059 5.544 1.059zm16.173-.353h5.58v-7.945h5.296l3.884 7.945h6.18l-4.943-9.393c2.718-1.483 4.343-4.308 4.343-7.592 0-5.085-3.743-8.793-9.57-8.793h-10.77V70.22zm5.58-12.995v-7.698h4.767c2.896 0 4.343 1.448 4.343 3.778 0 2.225-1.483 3.92-4.343 3.92H35.24zM87.356 11.07a4.35 4.35 0 001.24-.17 3.972 3.972 0 001.068-.49c.318-.204.602-.454.863-.739.262-.284.478-.602.648-.943l-1.648-.887a2.563 2.563 0 01-.83 1.035c-.363.273-.818.409-1.352.409-.352 0-.682-.068-.967-.193a2.254 2.254 0 01-.76-.535 2.298 2.298 0 01-.501-.795 2.422 2.422 0 01-.182-.955c0-.352.057-.682.182-.989.126-.307.296-.568.512-.795a2.61 2.61 0 01.762-.534c.295-.126.624-.194.977-.194.488 0 .92.114 1.272.341.354.239.626.557.83.955l1.58-.989a4.326 4.326 0 00-.659-.852 4.409 4.409 0 00-.864-.648 5.014 5.014 0 00-1.023-.409 4.232 4.232 0 00-1.148-.148c-.602 0-1.17.102-1.682.318a4.135 4.135 0 00-1.352.898 4.36 4.36 0 00-.887 1.353 4.423 4.423 0 00-.33 1.693c0 .592.103 1.148.32 1.66a4.1 4.1 0 00.863 1.352 3.94 3.94 0 001.341.91 4.307 4.307 0 001.727.34zm8.832 0c.602 0 1.16-.115 1.67-.341a4.233 4.233 0 002.592-3.922c0-.591-.114-1.148-.33-1.66a4.647 4.647 0 00-.909-1.352 4.46 4.46 0 00-1.352-.92 4.345 4.345 0 00-1.671-.33c-.59 0-1.148.114-1.66.33a4.271 4.271 0 00-1.34.92 4.233 4.233 0 00-1.24 3.011 4.235 4.235 0 001.24 3.013c.375.387.829.694 1.34.91.512.226 1.07.34 1.66.34zm0-1.774c-.353 0-.67-.068-.966-.193a2.167 2.167 0 01-.773-.546 2.494 2.494 0 01-.511-.795 2.41 2.41 0 01-.182-.955c0-.352.068-.67.192-.977a2.53 2.53 0 01.512-.796 2.38 2.38 0 01.772-.545 2.42 2.42 0 01.956-.194c.352 0 .67.068.977.194a2.53 2.53 0 011.296 1.34c.125.308.181.626.181.978 0 .341-.056.66-.181.955a2.505 2.505 0 01-.511.795 2.178 2.178 0 01-.774.546 2.601 2.601 0 01-.988.193zm5.399-6.637v8.296h5.523V9.23h-3.716V2.66h-1.807zm6.66 0v8.296h5.524V9.23h-3.716V2.66h-1.808zM115.794 0l1.74 1.978h1.295L117.545 0h-1.75zm-.886 2.66v8.296h5.66V9.275h-3.864V7.627h3.865V5.945h-3.865V4.33h3.865V2.66h-5.661zm11.07 8.41a4 4 0 001.672-.34c.5-.216.932-.523 1.284-.898.352-.376.613-.808.807-1.308.193-.5.284-1.023.284-1.568v-.818h-4.41v1.67h2.477c-.147.478-.397.853-.76 1.126-.364.284-.82.42-1.375.42-.376 0-.717-.068-1.024-.193a2.138 2.138 0 01-.796-.534 2.399 2.399 0 01-.522-.807 2.628 2.628 0 01-.182-1.012c0-.363.067-.704.193-1.011.125-.307.307-.58.534-.819a2.41 2.41 0 01.784-.545 2.54 2.54 0 01.978-.194c.454 0 .852.091 1.193.273.34.193.626.455.84.785l1.513-1.058a4.538 4.538 0 00-1.466-1.238c-.59-.307-1.285-.455-2.08-.455a4.5 4.5 0 00-1.727.33 4.134 4.134 0 00-1.353.897c-.376.376-.67.83-.886 1.353a4.33 4.33 0 00-.32 1.682c0 .58.103 1.126.308 1.637.204.511.5.966.875 1.352a4.04 4.04 0 001.376.933 4.502 4.502 0 001.784.34zm5.207-8.41v8.296h5.66V9.275h-3.865V7.627h3.865V5.945h-3.865V4.33h3.865V2.66h-5.66z" id="Fill-3" fill="#000100" mask="url(#mask-2)"/></g></g></g></svg>